# xmcd
#
# Track frame offsets: 
#        150
#        11262
#        62832
#        84201
#        131322
#        147285
#        173702
#        206571
#        226167
#        255831
#        296171
#
# Disc length: 4259 seconds
#
# Revision: 3
# Processed by: cddbd v1.5.2PL0 Copyright (c) Steve Scherf et al.
# Submitted via: ExactAudioCopy v0.95b4
#
DISCID=8810a10b
DTITLE=Various Artist - 100 Years Of Jazz [CD10) - Avantgarde - Free Jazz
DYEAR=1999
DGENRE=Jazz
TTITLE0=Lennie Tristano Sextet - Intuition
TTITLE1=Miles Davis Group - Splatch
TTITLE2=Pat Metheny Trio - Bright Size Life
TTITLE3=Archie Shepp Group - There's A Trumpet In My Soul (Part 1)
TTITLE4=Cecil Taylor - Jitney No. 2
TTITLE5=Keith Jarrett - Ritooria
TTITLE6=Jan Garbarek Group - Irr
TTITLE7=Dollar Brand Trio - Tintiyana
TTITLE8=Albert Ayler Group - Spirits
TTITLE9=Sun Ra Arkestra - Intergalactic Motion
TTITLE10=Art Ensemble Of Chicago - Old Time South Side Street Dance
EXTD=YEAR: 1999
EXTT0=
EXTT1=
EXTT2=
EXTT3=
EXTT4=
EXTT5=
EXTT6=
EXTT7=
EXTT8=
EXTT9=
EXTT10=
PLAYORDER=
